HIERARCHY
ROOT Hips
{
	OFFSET 0.000000 0.000000 0.000000
	CHANNELS 6 Xposition Yposition Zposition Zrotation Yrotation Xrotation 
	JOINT LHipJoint
	{
		OFFSET 0.000000 0.000000 0.000000
		CHANNELS 3 Zrotation Yrotation Xrotation
		JOINT LeftUpLeg
		{
			OFFSET 1.363060 -1.794630 0.839290
			CHANNELS 3 Zrotation Yrotation Xrotation
			JOINT LeftLeg
			{
				OFFSET 2.448110 -6.726130 0.000000
				CHANNELS 3 Zrotation Yrotation Xrotation
				JOINT LeftFoot
				{
					OFFSET 2.562200 -7.039590 0.000000
					CHANNELS 3 Zrotation Yrotation Xrotation
					JOINT LeftToeBase
					{
						OFFSET 0.157640 -0.433110 2.322550
						CHANNELS 3 Zrotation Yrotation Xrotation
						End Site
						{
							OFFSET 0.000000 0.000000 0.000000
						}
					}
				}
			}
		}
	}
	JOINT RHipJoint
	{
		OFFSET 0.000000 0.000000 0.000000
		CHANNELS 3 Zrotation Yrotation Xrotation
		JOINT RightUpLeg
		{
			OFFSET -1.305520 -1.794630 0.839290
			CHANNELS 3 Zrotation Yrotation Xrotation
			JOINT RightLeg
			{
				OFFSET -2.542530 -6.985550 0.000000
				CHANNELS 3 Zrotation Yrotation Xrotation
				JOINT RightFoot
				{
					OFFSET -2.568260 -7.056230 0.000000
					CHANNELS 3 Zrotation Yrotation Xrotation
					JOINT RightToeBase
					{
						OFFSET -0.164730 -0.452590 2.363150
						CHANNELS 3 Zrotation Yrotation Xrotation
						End Site
						{
							OFFSET 0.000000 0.000000 0.000000
						}
					}
				}
			}
		}
	}
	JOINT LowerBack
	{
		OFFSET 0.000000 0.000000 0.000000
		CHANNELS 3 Zrotation Yrotation Xrotation
		JOINT Spine
		{
			OFFSET 0.028270 2.035590 -0.193380
			CHANNELS 3 Zrotation Yrotation Xrotation
			JOINT Spine1
			{
				OFFSET 0.056720 2.048850 -0.042750
				CHANNELS 3 Zrotation Yrotation Xrotation
				JOINT Neck
				{
					OFFSET 0.000000 0.000000 0.000000
					CHANNELS 3 Zrotation Yrotation Xrotation
					JOINT Neck1
					{
						OFFSET -0.054170 1.746240 0.172020
						CHANNELS 3 Zrotation Yrotation Xrotation
						JOINT Head
						{
							OFFSET 0.104070 1.761360 -0.123970
							CHANNELS 3 Zrotation Yrotation Xrotation
							End Site
							{
								OFFSET 0.000000 0.000000 0.000000
							}
						}
					}
				}
				JOINT LeftShoulder
				{
					OFFSET 0.000000 0.000000 0.000000
					CHANNELS 3 Zrotation Yrotation Xrotation
					JOINT LeftArm
					{
						OFFSET 3.362410 1.200890 -0.311210
						CHANNELS 3 Zrotation Yrotation Xrotation
						JOINT LeftForeArm
						{
							OFFSET 4.983000 -0.000000 -0.000000
							CHANNELS 3 Zrotation Yrotation Xrotation
							JOINT LeftHand
							{
								OFFSET 3.483560 -0.000000 -0.000000
								CHANNELS 3 Zrotation Yrotation Xrotation
								JOINT LeftFingerBase
								{
									OFFSET 0.000000 0.000000 0.000000
									CHANNELS 3 Zrotation Yrotation Xrotation
									JOINT LeftHandIndex1
									{
										OFFSET 0.715260 -0.000000 -0.000000
										CHANNELS 3 Zrotation Yrotation Xrotation
										End Site
										{
											OFFSET 0.000000 0.000000 0.000000
										}
									}
								}
								JOINT LThumb
								{
									OFFSET 0.000000 0.000000 0.000000
									CHANNELS 3 Zrotation Yrotation Xrotation
									End Site
									{
										OFFSET 0.000000 0.000000 0.000000
									}
								}
							}
						}
					}
				}
				JOINT RightShoulder
				{
					OFFSET 0.000000 0.000000 0.000000
					CHANNELS 3 Zrotation Yrotation Xrotation
					JOINT RightArm
					{
						OFFSET -3.136600 1.374050 -0.404650
						CHANNELS 3 Zrotation Yrotation Xrotation
						JOINT RightForeArm
						{
							OFFSET -5.241900 -0.000000 -0.000000
							CHANNELS 3 Zrotation Yrotation Xrotation
							JOINT RightHand
							{
								OFFSET -3.444170 -0.000000 -0.000000
								CHANNELS 3 Zrotation Yrotation Xrotation
								JOINT RightFingerBase
								{
									OFFSET 0.000000 0.000000 0.000000
									CHANNELS 3 Zrotation Yrotation Xrotation
									JOINT RightHandIndex1
									{
										OFFSET -0.622530 -0.000000 -0.000000
										CHANNELS 3 Zrotation Yrotation Xrotation
										End Site
										{
											OFFSET 0.000000 0.000000 0.000000
										}
									}
								}
								JOINT RThumb
								{
									OFFSET 0.000000 0.000000 0.000000
									CHANNELS 3 Zrotation Yrotation Xrotation
									End Site
									{
										OFFSET 0.000000 0.000000 0.000000
									}
								}
							}
						}
					}
				}
			}
		}
	}
}
MOTION
Frames: 8
Frame Time: 0.008333
-9.261142 16.528461 -1.818270 107.636211 85.844419 131.970533 -10.775172 3.271914 -2.215950 -2.580099 7.101624 -0.767485 -2.057718 0.619938 10.941403 0.061746 -2.144846 8.033325 -0.427800 -0.000000 -84.397300 8.306940 0.843050 2.371117 14.383882 4.594727 -50.861848 3.878586 1.034811 6.878360 -0.678619 -2.768108 -1.077590 -1.227600 0.000001 -41.128900 -0.133991 -2.595831 2.358237 -1.205208 -2.657551 -2.103120 -8.102099 -2.647972 1.353935 10.663168 -6.513278 -6.335688 -4.085834 -0.302591 0.127438 0.000000 0.000000 0.000000 1.673018 2.153195 4.008291 -19.588123 -22.993073 -2.667232 -1.389337 -67.618726 0.066232 -13.625973 -2.191231 0.299123 0.090056 0.291743 0.000000 0.000000 0.000000 0.000000 0.000000 0.000000 0.000000 20.090397 -5.236042 1.872520 66.676614 -4.963427 5.593862 3.464528 32.315082 0.016046 10.969055 6.917206 0.672520 0.005755 -0.076933 -0.000000 0.000000 0.000000 0.000000 0.000000 0.000000 0.000000 
-8.992129 16.494521 -1.780971 106.856586 85.812436 131.204535 -10.877314 3.358215 -2.160182 -2.213754 6.880498 -1.044887 -1.885879 0.812233 12.873416 0.109213 -2.424495 9.846701 -0.604300 -0.000000 -87.259800 8.221422 0.682996 2.482270 14.136034 5.581477 -51.364489 3.594348 0.641217 9.747926 -0.965493 -3.914601 -1.360754 -1.420000 -0.000000 -35.583200 0.268002 -2.541124 2.145443 -1.120095 -2.625639 -2.141069 -8.107001 -2.615671 1.395923 10.455455 -6.481519 -6.372595 -4.128831 -0.305744 0.121089 0.000000 0.000000 0.000000 1.354419 2.518432 4.005586 -19.479326 -22.625412 -2.564330 -1.378784 -68.009436 0.065549 -13.632831 -2.271733 0.308531 0.086767 0.288638 0.000000 0.000000 0.000000 0.000000 0.000000 0.000000 0.000000 20.079289 -5.180741 1.842704 66.615941 -4.977979 5.061187 3.505106 31.912884 0.016075 10.873562 6.895118 0.664322 0.007860 -0.076397 -0.000000 0.000000 0.000000 0.000000 0.000000 0.000000 0.000000 
-8.722493 16.465897 -1.741476 106.338350 85.798592 130.684561 -11.000716 3.428540 -2.108760 -1.785772 6.748919 -1.504444 -1.690651 1.006717 15.029718 0.175638 -2.827555 11.933986 -0.861300 0.000000 -89.638900 8.127472 0.542355 2.568144 13.886118 6.566592 -51.916598 3.290913 0.222109 12.955865 -1.234662 -4.891789 -1.853288 -1.541600 0.000000 -28.913000 0.684336 -2.486561 1.958864 -1.031739 -2.594702 -2.175530 -8.111555 -2.584725 1.431208 10.254608 -6.407170 -6.398983 -4.169862 -0.308772 0.116905 0.000000 0.000000 0.000000 1.020091 2.862850 4.011909 -19.490437 -22.187898 -2.346405 -1.380235 -68.314404 0.064627 -13.653838 -2.356305 0.318544 0.082334 0.283957 0.000000 0.000000 0.000000 0.000000 0.000000 0.000000 0.000000 20.055907 -5.081980 1.815230 66.580770 -4.922038 4.452218 3.544606 31.426466 0.016110 10.755502 6.866962 0.654223 0.009999 -0.076030 -0.000000 0.000000 0.000000 0.000000 0.000000 0.000000 0.000000 
-8.453460 16.442881 -1.699718 106.137749 85.799719 130.449475 -11.139868 3.475137 -2.065072 -1.301516 6.698136 -2.118280 -1.474046 1.194606 17.392704 0.268381 -3.313760 14.246107 -1.201900 -0.000000 -91.319700 8.030324 0.428542 2.614950 13.673698 7.486300 -52.443731 2.985655 -0.194946 16.332439 -1.474731 -5.671118 -2.568108 -1.576000 -0.000000 -21.640400 1.105629 -2.435296 1.818323 -0.941784 -2.566704 -2.202179 -8.113160 -2.557044 1.459723 10.064306 -6.289136 -6.411240 -4.205925 -0.311462 0.115739 0.000000 0.000000 0.000000 0.678234 3.185123 4.026218 -19.616171 -21.697844 -2.010216 -1.393973 -68.517995 0.063466 -13.687633 -2.443172 0.329063 0.076921 0.277774 0.000000 0.000000 0.000000 0.000000 0.000000 0.000000 0.000000 20.010221 -4.940941 1.789594 66.580347 -4.785976 3.780098 3.581812 30.856407 0.016135 10.617792 6.833265 0.642524 0.012086 -0.075806 -0.000000 0.000000 0.000000 0.000000 0.000000 0.000000 0.000000 
-8.186216 16.425682 -1.655332 106.191283 85.806814 130.431640 -11.281861 3.491983 -2.028355 -0.792150 6.689133 -2.860070 -1.242739 1.366882 19.932795 0.392197 -3.802675 16.705092 -1.604600 0.000001 -92.065900 7.941117 0.345246 2.619789 13.512346 8.297251 -52.879573 2.692032 -0.586131 19.693221 -1.680048 -6.267187 -3.446617 -1.530900 -0.000000 -14.739300 1.510026 -2.389631 1.728769 -0.854591 -2.542507 -2.220677 -8.109753 -2.533664 1.478612 9.891553 -6.123239 -6.401681 -4.235359 -0.313771 0.119776 0.000000 0.000000 0.000000 0.354604 3.461057 4.047043 -19.873833 -21.132274 -1.558012 -1.419352 -68.622612 0.062060 -13.737706 -2.526511 0.339285 0.070739 0.270014 0.000000 0.000000 0.000000 0.000000 0.000000 0.000000 0.000000 19.940243 -4.755457 1.766140 66.621419 -4.572533 3.058975 3.615253 30.215435 0.016146 10.467727 6.794141 0.629724 0.014015 -0.075711 -0.000000 0.000000 0.000000 0.000000 0.000000 0.000000 0.000000 
-7.921638 16.414504 -1.608443 106.536766 85.824821 130.674141 -11.419591 3.471240 -1.999462 -0.267616 6.701026 -3.722976 -1.006633 1.517127 22.631871 0.544976 -4.225406 19.199683 -2.032500 0.000000 -91.667900 7.861545 0.285923 2.588510 13.426604 8.987151 -53.166667 2.426419 -0.932322 22.874191 -1.853207 -6.712620 -4.462838 -1.419100 0.000000 -8.806400 1.895670 -2.350579 1.686755 -0.770046 -2.522767 -2.231274 -8.099876 -2.515228 1.490312 9.739417 -5.915726 -6.368908 -4.256006 -0.315560 0.129591 0.000000 0.000000 0.000000 0.052600 3.694086 4.072265 -20.254428 -20.507753 -0.989341 -1.456473 -68.617717 0.060407 -13.802225 -2.602250 0.348809 0.063925 0.260745 -0.000000 0.000000 0.000000 0.000000 0.000000 0.000000 0.000000 19.840178 -4.533967 1.743355 66.703768 -4.273059 2.318238 3.644570 29.518318 0.016137 10.313338 6.751126 0.616323 0.015719 -0.075710 -0.000000 0.000000 0.000000 0.000000 0.000000 0.000000 0.000000 
-7.660310 16.409419 -1.559109 107.166993 85.857996 131.179621 -11.544949 3.409749 -1.977438 0.256806 6.712332 -4.704606 -0.777988 1.643054 25.467269 0.718870 -4.504778 21.597387 -2.427201 -0.000000 -89.970500 7.792287 0.241711 2.529251 13.437070 9.550552 -53.270139 2.203957 -1.223580 25.758977 -1.999173 -7.029609 -5.624730 -1.248701 0.000000 -4.010200 2.259151 -2.318121 1.683079 -0.688474 -2.507299 -2.235709 -8.082583 -2.501583 1.496438 9.611046 -5.674443 -6.311526 -4.266593 -0.316773 0.145846 0.000000 0.000000 0.000000 -0.220232 3.880837 4.099442 -20.756238 -19.824926 -0.307496 -1.505021 -68.501374 0.058497 -13.881944 -2.664182 0.356937 0.056628 0.249976 -0.000000 0.000000 0.000000 0.000000 0.000000 0.000000 0.000000 19.708357 -4.285798 1.719989 66.822436 -3.885142 1.592937 3.669585 28.789054 0.016108 10.164266 6.706651 0.603322 0.017140 -0.075775 -0.000000 0.000000 0.000000 0.000000 0.000000 0.000000 0.000000 
-7.402590 16.410426 -1.507244 108.006674 85.906196 131.884222 -11.649680 3.310827 -1.960429 0.758533 6.705472 -5.804141 -0.568609 1.747625 28.408535 0.902067 -4.564248 23.759139 -2.716400 0.000000 -86.945800 7.735202 0.205109 2.449263 13.554281 9.980855 -53.173661 2.035783 -1.457543 28.274052 -2.122554 -7.227255 -6.950879 -1.024400 0.000000 -0.206600 2.591435 -2.291818 1.707180 -0.611664 -2.495381 -2.235195 -8.057856 -2.491849 1.501024 9.510713 -5.409832 -6.232285 -4.266284 -0.317343 0.167978 0.000000 0.000000 0.000000 -0.463758 4.037220 4.126112 -21.359948 -19.111569 0.486788 -1.565242 -68.262023 0.056329 -13.974364 -2.707589 0.362963 0.048948 0.237826 -0.000000 0.000000 0.000000 0.000000 0.000000 0.000000 0.000000 19.548603 -4.021710 1.693338 66.971077 -3.409588 0.918320 3.689929 28.062066 0.016058 10.033027 6.660852 0.591419 0.018191 -0.075865 -0.000000 0.000000 0.000000 0.000000 0.000000 0.000000 0.000000 
